<mxfile host="app.diagrams.net" modified="2023-09-07T06:14:10.019Z" agent="Mozilla/5.0 (Windows NT 10.0; Win64; x64) AppleWebKit/537.36 (KHTML, like Gecko) Chrome/116.0.0.0 Safari/537.36" etag="4AjCD_daXelW6HR7-P2A" version="21.7.2" type="github">
  <diagram name="Page-1" id="d7HcgYwSpGxKavv-GMwL">
    <mxGraphModel dx="1371" dy="830" grid="1" gridSize="10" guides="1" tooltips="1" connect="1" arrows="1" fold="1" page="1" pageScale="1" pageWidth="850" pageHeight="1100" math="0" shadow="0">
      <root>
        <mxCell id="0" />
        <mxCell id="1" parent="0" />
        <mxCell id="SSoFNLpBlaiQV2NDGb-g-35" value="COMMENTS" style="shape=table;startSize=30;container=1;collapsible=0;childLayout=tableLayout;fixedRows=1;rowLines=0;fontStyle=0;strokeColor=default;fontSize=16;" vertex="1" parent="1">
          <mxGeometry x="610" y="510" width="210" height="220" as="geometry" />
        </mxCell>
        <mxCell id="SSoFNLpBlaiQV2NDGb-g-36" value="" style="shape=tableRow;horizontal=0;startSize=0;swimlaneHead=0;swimlaneBody=0;top=0;left=0;bottom=0;right=0;collapsible=0;dropTarget=0;fillColor=none;points=[[0,0.5],[1,0.5]];portConstraint=eastwest;strokeColor=inherit;fontSize=16;" vertex="1" parent="SSoFNLpBlaiQV2NDGb-g-35">
          <mxGeometry y="30" width="210" height="30" as="geometry" />
        </mxCell>
        <mxCell id="SSoFNLpBlaiQV2NDGb-g-37" value="PK" style="shape=partialRectangle;html=1;whiteSpace=wrap;connectable=0;fillColor=none;top=0;left=0;bottom=0;right=0;overflow=hidden;pointerEvents=1;strokeColor=inherit;fontSize=16;" vertex="1" parent="SSoFNLpBlaiQV2NDGb-g-36">
          <mxGeometry width="47" height="30" as="geometry">
            <mxRectangle width="47" height="30" as="alternateBounds" />
          </mxGeometry>
        </mxCell>
        <mxCell id="SSoFNLpBlaiQV2NDGb-g-38" value="CommentID" style="shape=partialRectangle;html=1;whiteSpace=wrap;connectable=0;fillColor=none;top=0;left=0;bottom=0;right=0;align=left;spacingLeft=6;overflow=hidden;strokeColor=inherit;fontSize=16;" vertex="1" parent="SSoFNLpBlaiQV2NDGb-g-36">
          <mxGeometry x="47" width="163" height="30" as="geometry">
            <mxRectangle width="163" height="30" as="alternateBounds" />
          </mxGeometry>
        </mxCell>
        <mxCell id="SSoFNLpBlaiQV2NDGb-g-39" value="" style="shape=tableRow;horizontal=0;startSize=0;swimlaneHead=0;swimlaneBody=0;top=0;left=0;bottom=0;right=0;collapsible=0;dropTarget=0;fillColor=none;points=[[0,0.5],[1,0.5]];portConstraint=eastwest;strokeColor=inherit;fontSize=16;" vertex="1" parent="SSoFNLpBlaiQV2NDGb-g-35">
          <mxGeometry y="60" width="210" height="160" as="geometry" />
        </mxCell>
        <mxCell id="SSoFNLpBlaiQV2NDGb-g-40" value="FK&lt;br style=&quot;border-color: var(--border-color);&quot;&gt;&lt;br style=&quot;border-color: var(--border-color);&quot;&gt;FK" style="shape=partialRectangle;html=1;whiteSpace=wrap;connectable=0;fillColor=none;top=0;left=0;bottom=0;right=0;overflow=hidden;strokeColor=inherit;fontSize=16;" vertex="1" parent="SSoFNLpBlaiQV2NDGb-g-39">
          <mxGeometry width="47" height="160" as="geometry">
            <mxRectangle width="47" height="160" as="alternateBounds" />
          </mxGeometry>
        </mxCell>
        <mxCell id="SSoFNLpBlaiQV2NDGb-g-41" value="Content&lt;br&gt;&lt;br&gt;UserID&lt;br&gt;&lt;br&gt;Post ID&lt;br&gt;&lt;br&gt;Timestamp" style="shape=partialRectangle;html=1;whiteSpace=wrap;connectable=0;fillColor=none;top=0;left=0;bottom=0;right=0;align=left;spacingLeft=6;overflow=hidden;strokeColor=inherit;fontSize=16;" vertex="1" parent="SSoFNLpBlaiQV2NDGb-g-39">
          <mxGeometry x="47" width="163" height="160" as="geometry">
            <mxRectangle width="163" height="160" as="alternateBounds" />
          </mxGeometry>
        </mxCell>
        <mxCell id="SSoFNLpBlaiQV2NDGb-g-86" style="edgeStyle=elbowEdgeStyle;rounded=0;orthogonalLoop=1;jettySize=auto;elbow=vertical;html=1;entryX=1;entryY=0.5;entryDx=0;entryDy=0;" edge="1" parent="SSoFNLpBlaiQV2NDGb-g-35" source="SSoFNLpBlaiQV2NDGb-g-39" target="SSoFNLpBlaiQV2NDGb-g-39">
          <mxGeometry relative="1" as="geometry" />
        </mxCell>
        <mxCell id="SSoFNLpBlaiQV2NDGb-g-45" value="USERS" style="shape=table;startSize=30;container=1;collapsible=0;childLayout=tableLayout;fixedRows=1;rowLines=0;fontStyle=0;strokeColor=default;fontSize=16;" vertex="1" parent="1">
          <mxGeometry x="50" y="150" width="230" height="320.0000000000007" as="geometry" />
        </mxCell>
        <mxCell id="SSoFNLpBlaiQV2NDGb-g-46" value="" style="shape=tableRow;horizontal=0;startSize=0;swimlaneHead=0;swimlaneBody=0;top=0;left=0;bottom=0;right=0;collapsible=0;dropTarget=0;fillColor=none;points=[[0,0.5],[1,0.5]];portConstraint=eastwest;strokeColor=inherit;fontSize=16;" vertex="1" parent="SSoFNLpBlaiQV2NDGb-g-45">
          <mxGeometry y="30" width="230" height="30" as="geometry" />
        </mxCell>
        <mxCell id="SSoFNLpBlaiQV2NDGb-g-47" value="PK" style="shape=partialRectangle;html=1;whiteSpace=wrap;connectable=0;fillColor=none;top=0;left=0;bottom=0;right=0;overflow=hidden;pointerEvents=1;strokeColor=inherit;fontSize=16;" vertex="1" parent="SSoFNLpBlaiQV2NDGb-g-46">
          <mxGeometry width="40" height="30" as="geometry">
            <mxRectangle width="40" height="30" as="alternateBounds" />
          </mxGeometry>
        </mxCell>
        <mxCell id="SSoFNLpBlaiQV2NDGb-g-48" value="userID" style="shape=partialRectangle;html=1;whiteSpace=wrap;connectable=0;fillColor=none;top=0;left=0;bottom=0;right=0;align=left;spacingLeft=6;overflow=hidden;strokeColor=inherit;fontSize=16;" vertex="1" parent="SSoFNLpBlaiQV2NDGb-g-46">
          <mxGeometry x="40" width="190" height="30" as="geometry">
            <mxRectangle width="190" height="30" as="alternateBounds" />
          </mxGeometry>
        </mxCell>
        <mxCell id="SSoFNLpBlaiQV2NDGb-g-49" value="" style="shape=tableRow;horizontal=0;startSize=0;swimlaneHead=0;swimlaneBody=0;top=0;left=0;bottom=0;right=0;collapsible=0;dropTarget=0;fillColor=none;points=[[0,0.5],[1,0.5]];portConstraint=eastwest;strokeColor=inherit;fontSize=16;" vertex="1" parent="SSoFNLpBlaiQV2NDGb-g-45">
          <mxGeometry y="60" width="230" height="260" as="geometry" />
        </mxCell>
        <mxCell id="SSoFNLpBlaiQV2NDGb-g-50" value="" style="shape=partialRectangle;html=1;whiteSpace=wrap;connectable=0;fillColor=none;top=0;left=0;bottom=0;right=0;overflow=hidden;strokeColor=inherit;fontSize=16;" vertex="1" parent="SSoFNLpBlaiQV2NDGb-g-49">
          <mxGeometry width="40" height="260" as="geometry">
            <mxRectangle width="40" height="260" as="alternateBounds" />
          </mxGeometry>
        </mxCell>
        <mxCell id="SSoFNLpBlaiQV2NDGb-g-51" value="First Name&lt;br&gt;&lt;br&gt;Last Name&lt;br&gt;&lt;br&gt;Email&lt;br&gt;&lt;br&gt;Password&lt;br&gt;&lt;br&gt;Birthdate&lt;br&gt;&lt;br&gt;Location&lt;br&gt;&lt;br&gt;Signup Date" style="shape=partialRectangle;html=1;whiteSpace=wrap;connectable=0;fillColor=none;top=0;left=0;bottom=0;right=0;align=left;spacingLeft=6;overflow=hidden;strokeColor=inherit;fontSize=16;" vertex="1" parent="SSoFNLpBlaiQV2NDGb-g-49">
          <mxGeometry x="40" width="190" height="260" as="geometry">
            <mxRectangle width="190" height="260" as="alternateBounds" />
          </mxGeometry>
        </mxCell>
        <mxCell id="SSoFNLpBlaiQV2NDGb-g-55" value="POSTS" style="shape=table;startSize=30;container=1;collapsible=0;childLayout=tableLayout;fixedRows=1;rowLines=0;fontStyle=0;strokeColor=default;fontSize=16;" vertex="1" parent="1">
          <mxGeometry x="610" y="30" width="210" height="240" as="geometry" />
        </mxCell>
        <mxCell id="SSoFNLpBlaiQV2NDGb-g-56" value="" style="shape=tableRow;horizontal=0;startSize=0;swimlaneHead=0;swimlaneBody=0;top=0;left=0;bottom=0;right=0;collapsible=0;dropTarget=0;fillColor=none;points=[[0,0.5],[1,0.5]];portConstraint=eastwest;strokeColor=inherit;fontSize=16;" vertex="1" parent="SSoFNLpBlaiQV2NDGb-g-55">
          <mxGeometry y="30" width="210" height="30" as="geometry" />
        </mxCell>
        <mxCell id="SSoFNLpBlaiQV2NDGb-g-57" value="PK" style="shape=partialRectangle;html=1;whiteSpace=wrap;connectable=0;fillColor=none;top=0;left=0;bottom=0;right=0;overflow=hidden;pointerEvents=1;strokeColor=inherit;fontSize=16;" vertex="1" parent="SSoFNLpBlaiQV2NDGb-g-56">
          <mxGeometry width="40" height="30" as="geometry">
            <mxRectangle width="40" height="30" as="alternateBounds" />
          </mxGeometry>
        </mxCell>
        <mxCell id="SSoFNLpBlaiQV2NDGb-g-58" value="PostID" style="shape=partialRectangle;html=1;whiteSpace=wrap;connectable=0;fillColor=none;top=0;left=0;bottom=0;right=0;align=left;spacingLeft=6;overflow=hidden;strokeColor=inherit;fontSize=16;" vertex="1" parent="SSoFNLpBlaiQV2NDGb-g-56">
          <mxGeometry x="40" width="170" height="30" as="geometry">
            <mxRectangle width="170" height="30" as="alternateBounds" />
          </mxGeometry>
        </mxCell>
        <mxCell id="SSoFNLpBlaiQV2NDGb-g-59" value="" style="shape=tableRow;horizontal=0;startSize=0;swimlaneHead=0;swimlaneBody=0;top=0;left=0;bottom=0;right=0;collapsible=0;dropTarget=0;fillColor=none;points=[[0,0.5],[1,0.5]];portConstraint=eastwest;strokeColor=inherit;fontSize=16;" vertex="1" parent="SSoFNLpBlaiQV2NDGb-g-55">
          <mxGeometry y="60" width="210" height="180" as="geometry" />
        </mxCell>
        <mxCell id="SSoFNLpBlaiQV2NDGb-g-60" value="&lt;br&gt;&lt;br&gt;&lt;br&gt;&lt;br&gt;FK" style="shape=partialRectangle;html=1;whiteSpace=wrap;connectable=0;fillColor=none;top=0;left=0;bottom=0;right=0;overflow=hidden;strokeColor=inherit;fontSize=16;" vertex="1" parent="SSoFNLpBlaiQV2NDGb-g-59">
          <mxGeometry width="40" height="180" as="geometry">
            <mxRectangle width="40" height="180" as="alternateBounds" />
          </mxGeometry>
        </mxCell>
        <mxCell id="SSoFNLpBlaiQV2NDGb-g-61" value="Title&lt;br&gt;&lt;br&gt;Description&lt;br&gt;&lt;br&gt;ImageURL&lt;br&gt;&lt;br&gt;UserID&lt;br&gt;&lt;br&gt;Timestamp" style="shape=partialRectangle;html=1;whiteSpace=wrap;connectable=0;fillColor=none;top=0;left=0;bottom=0;right=0;align=left;spacingLeft=6;overflow=hidden;strokeColor=inherit;fontSize=16;" vertex="1" parent="SSoFNLpBlaiQV2NDGb-g-59">
          <mxGeometry x="40" width="170" height="180" as="geometry">
            <mxRectangle width="170" height="180" as="alternateBounds" />
          </mxGeometry>
        </mxCell>
        <mxCell id="SSoFNLpBlaiQV2NDGb-g-65" value="LIKES" style="shape=table;startSize=30;container=1;collapsible=0;childLayout=tableLayout;fixedRows=1;rowLines=0;fontStyle=0;strokeColor=default;fontSize=16;" vertex="1" parent="1">
          <mxGeometry x="610" y="320" width="210" height="170.0000000000001" as="geometry" />
        </mxCell>
        <mxCell id="SSoFNLpBlaiQV2NDGb-g-66" value="" style="shape=tableRow;horizontal=0;startSize=0;swimlaneHead=0;swimlaneBody=0;top=0;left=0;bottom=0;right=0;collapsible=0;dropTarget=0;fillColor=none;points=[[0,0.5],[1,0.5]];portConstraint=eastwest;strokeColor=inherit;fontSize=16;" vertex="1" parent="SSoFNLpBlaiQV2NDGb-g-65">
          <mxGeometry y="30" width="210" height="30" as="geometry" />
        </mxCell>
        <mxCell id="SSoFNLpBlaiQV2NDGb-g-67" value="PK" style="shape=partialRectangle;html=1;whiteSpace=wrap;connectable=0;fillColor=none;top=0;left=0;bottom=0;right=0;overflow=hidden;pointerEvents=1;strokeColor=inherit;fontSize=16;" vertex="1" parent="SSoFNLpBlaiQV2NDGb-g-66">
          <mxGeometry width="47" height="30" as="geometry">
            <mxRectangle width="47" height="30" as="alternateBounds" />
          </mxGeometry>
        </mxCell>
        <mxCell id="SSoFNLpBlaiQV2NDGb-g-68" value="LikeID" style="shape=partialRectangle;html=1;whiteSpace=wrap;connectable=0;fillColor=none;top=0;left=0;bottom=0;right=0;align=left;spacingLeft=6;overflow=hidden;strokeColor=inherit;fontSize=16;" vertex="1" parent="SSoFNLpBlaiQV2NDGb-g-66">
          <mxGeometry x="47" width="163" height="30" as="geometry">
            <mxRectangle width="163" height="30" as="alternateBounds" />
          </mxGeometry>
        </mxCell>
        <mxCell id="SSoFNLpBlaiQV2NDGb-g-69" value="" style="shape=tableRow;horizontal=0;startSize=0;swimlaneHead=0;swimlaneBody=0;top=0;left=0;bottom=0;right=0;collapsible=0;dropTarget=0;fillColor=none;points=[[0,0.5],[1,0.5]];portConstraint=eastwest;strokeColor=inherit;fontSize=16;" vertex="1" parent="SSoFNLpBlaiQV2NDGb-g-65">
          <mxGeometry y="60" width="210" height="110" as="geometry" />
        </mxCell>
        <mxCell id="SSoFNLpBlaiQV2NDGb-g-70" value="&lt;font style=&quot;font-size: 15px;&quot;&gt;FK&lt;br&gt;&lt;br&gt;FK&lt;br&gt;&lt;br&gt;&lt;br&gt;&lt;/font&gt;" style="shape=partialRectangle;html=1;whiteSpace=wrap;connectable=0;fillColor=none;top=0;left=0;bottom=0;right=0;overflow=hidden;strokeColor=inherit;fontSize=16;" vertex="1" parent="SSoFNLpBlaiQV2NDGb-g-69">
          <mxGeometry width="47" height="110" as="geometry">
            <mxRectangle width="47" height="110" as="alternateBounds" />
          </mxGeometry>
        </mxCell>
        <mxCell id="SSoFNLpBlaiQV2NDGb-g-71" value="PostID&lt;br&gt;&lt;br&gt;UserID&lt;br&gt;&lt;br&gt;Timestamp" style="shape=partialRectangle;html=1;whiteSpace=wrap;connectable=0;fillColor=none;top=0;left=0;bottom=0;right=0;align=left;spacingLeft=6;overflow=hidden;strokeColor=inherit;fontSize=16;" vertex="1" parent="SSoFNLpBlaiQV2NDGb-g-69">
          <mxGeometry x="47" width="163" height="110" as="geometry">
            <mxRectangle width="163" height="110" as="alternateBounds" />
          </mxGeometry>
        </mxCell>
        <mxCell id="SSoFNLpBlaiQV2NDGb-g-75" value="" style="line;strokeWidth=2;html=1;" vertex="1" parent="1">
          <mxGeometry x="50" y="205" width="230" height="10" as="geometry" />
        </mxCell>
        <mxCell id="SSoFNLpBlaiQV2NDGb-g-76" value="" style="line;strokeWidth=2;html=1;" vertex="1" parent="1">
          <mxGeometry x="610" y="85" width="210" height="10" as="geometry" />
        </mxCell>
        <mxCell id="SSoFNLpBlaiQV2NDGb-g-77" value="" style="line;strokeWidth=2;html=1;" vertex="1" parent="1">
          <mxGeometry x="610" y="570" width="210" height="10" as="geometry" />
        </mxCell>
        <mxCell id="SSoFNLpBlaiQV2NDGb-g-79" value="" style="line;strokeWidth=2;html=1;" vertex="1" parent="1">
          <mxGeometry x="610" y="380" width="210" height="10" as="geometry" />
        </mxCell>
        <mxCell id="SSoFNLpBlaiQV2NDGb-g-82" value="" style="line;strokeWidth=1;html=1;" vertex="1" parent="1">
          <mxGeometry x="90" y="240" width="190" height="10" as="geometry" />
        </mxCell>
        <mxCell id="SSoFNLpBlaiQV2NDGb-g-83" style="edgeStyle=elbowEdgeStyle;rounded=0;orthogonalLoop=1;jettySize=auto;html=1;entryX=0.994;entryY=0.294;entryDx=0;entryDy=0;entryPerimeter=0;" edge="1" parent="1" target="SSoFNLpBlaiQV2NDGb-g-46">
          <mxGeometry relative="1" as="geometry">
            <mxPoint x="610" y="221" as="sourcePoint" />
          </mxGeometry>
        </mxCell>
        <mxCell id="SSoFNLpBlaiQV2NDGb-g-84" style="edgeStyle=elbowEdgeStyle;rounded=0;orthogonalLoop=1;jettySize=auto;html=1;entryX=1;entryY=0.5;entryDx=0;entryDy=0;exitX=0;exitY=0.5;exitDx=0;exitDy=0;" edge="1" parent="1" source="SSoFNLpBlaiQV2NDGb-g-69" target="SSoFNLpBlaiQV2NDGb-g-46">
          <mxGeometry relative="1" as="geometry">
            <mxPoint x="580" y="386" as="sourcePoint" />
            <Array as="points">
              <mxPoint x="410" y="290" />
            </Array>
          </mxGeometry>
        </mxCell>
        <mxCell id="SSoFNLpBlaiQV2NDGb-g-87" value="" style="line;strokeWidth=1;html=1;" vertex="1" parent="1">
          <mxGeometry x="90" y="275" width="190" height="10" as="geometry" />
        </mxCell>
        <mxCell id="SSoFNLpBlaiQV2NDGb-g-88" value="" style="line;strokeWidth=1;html=1;" vertex="1" parent="1">
          <mxGeometry x="90" y="310" width="190" height="10" as="geometry" />
        </mxCell>
        <mxCell id="SSoFNLpBlaiQV2NDGb-g-96" value="" style="line;strokeWidth=1;html=1;" vertex="1" parent="1">
          <mxGeometry x="90" y="352" width="190" height="10" as="geometry" />
        </mxCell>
        <mxCell id="SSoFNLpBlaiQV2NDGb-g-97" value="" style="line;strokeWidth=1;html=1;" vertex="1" parent="1">
          <mxGeometry x="90" y="390" width="190" height="10" as="geometry" />
        </mxCell>
        <mxCell id="SSoFNLpBlaiQV2NDGb-g-98" style="edgeStyle=elbowEdgeStyle;rounded=0;orthogonalLoop=1;jettySize=auto;html=1;exitX=0.003;exitY=0.347;exitDx=0;exitDy=0;entryX=0.994;entryY=0.711;entryDx=0;entryDy=0;entryPerimeter=0;exitPerimeter=0;" edge="1" parent="1" source="SSoFNLpBlaiQV2NDGb-g-39" target="SSoFNLpBlaiQV2NDGb-g-46">
          <mxGeometry relative="1" as="geometry">
            <Array as="points">
              <mxPoint x="360" y="370" />
            </Array>
          </mxGeometry>
        </mxCell>
        <mxCell id="SSoFNLpBlaiQV2NDGb-g-99" style="edgeStyle=elbowEdgeStyle;rounded=0;orthogonalLoop=1;jettySize=auto;html=1;exitX=0.003;exitY=0.623;exitDx=0;exitDy=0;entryX=0.011;entryY=0.239;entryDx=0;entryDy=0;exitPerimeter=0;entryPerimeter=0;" edge="1" parent="1" source="SSoFNLpBlaiQV2NDGb-g-39" target="SSoFNLpBlaiQV2NDGb-g-56">
          <mxGeometry relative="1" as="geometry">
            <mxPoint x="620" y="565" as="sourcePoint" />
            <mxPoint x="270" y="205" as="targetPoint" />
            <Array as="points">
              <mxPoint x="460" y="390" />
            </Array>
          </mxGeometry>
        </mxCell>
        <mxCell id="SSoFNLpBlaiQV2NDGb-g-100" style="edgeStyle=elbowEdgeStyle;rounded=0;orthogonalLoop=1;jettySize=auto;html=1;exitX=0;exitY=0.191;exitDx=0;exitDy=0;entryX=-0.003;entryY=0.739;entryDx=0;entryDy=0;exitPerimeter=0;entryPerimeter=0;" edge="1" parent="1" source="SSoFNLpBlaiQV2NDGb-g-69" target="SSoFNLpBlaiQV2NDGb-g-56">
          <mxGeometry relative="1" as="geometry">
            <mxPoint x="610" y="342" as="sourcePoint" />
            <mxPoint x="610" y="-162" as="targetPoint" />
            <Array as="points">
              <mxPoint x="530" y="110" />
            </Array>
          </mxGeometry>
        </mxCell>
        <mxCell id="SSoFNLpBlaiQV2NDGb-g-101" value="" style="line;strokeWidth=1;direction=south;html=1;" vertex="1" parent="1">
          <mxGeometry x="198" y="180" width="10" height="290" as="geometry" />
        </mxCell>
        <UserObject label="&lt;font style=&quot;font-size: 15px;&quot;&gt;Integer&lt;br&gt;&lt;br&gt;String&lt;br&gt;&lt;br&gt;String&lt;br&gt;&lt;br&gt;String&lt;br&gt;&lt;br&gt;String&lt;br&gt;&lt;br&gt;Date&lt;br&gt;&lt;br&gt;String&lt;br&gt;&lt;br&gt;Date&lt;br&gt;&lt;/font&gt;" placeholders="1" name="Variable" id="SSoFNLpBlaiQV2NDGb-g-102">
          <mxCell style="text;html=1;strokeColor=none;fillColor=none;align=center;verticalAlign=middle;whiteSpace=wrap;overflow=hidden;" vertex="1" parent="1">
            <mxGeometry x="211" y="179" width="60" height="282" as="geometry" />
          </mxCell>
        </UserObject>
        <mxCell id="SSoFNLpBlaiQV2NDGb-g-103" value="" style="line;strokeWidth=1;html=1;" vertex="1" parent="1">
          <mxGeometry x="650" y="118" width="170" height="10" as="geometry" />
        </mxCell>
        <mxCell id="SSoFNLpBlaiQV2NDGb-g-104" value="" style="line;strokeWidth=1;html=1;" vertex="1" parent="1">
          <mxGeometry x="650" y="155" width="170" height="10" as="geometry" />
        </mxCell>
        <mxCell id="SSoFNLpBlaiQV2NDGb-g-105" value="" style="line;strokeWidth=1;html=1;" vertex="1" parent="1">
          <mxGeometry x="650" y="191" width="170" height="10" as="geometry" />
        </mxCell>
        <mxCell id="SSoFNLpBlaiQV2NDGb-g-106" value="" style="line;strokeWidth=1;direction=south;html=1;" vertex="1" parent="1">
          <mxGeometry x="750" y="60" width="10" height="210" as="geometry" />
        </mxCell>
        <mxCell id="SSoFNLpBlaiQV2NDGb-g-107" value="" style="line;strokeWidth=1;html=1;" vertex="1" parent="1">
          <mxGeometry x="657" y="412" width="163" height="10" as="geometry" />
        </mxCell>
        <mxCell id="SSoFNLpBlaiQV2NDGb-g-108" value="" style="line;strokeWidth=1;html=1;" vertex="1" parent="1">
          <mxGeometry x="657" y="603" width="163" height="10" as="geometry" />
        </mxCell>
        <mxCell id="SSoFNLpBlaiQV2NDGb-g-109" value="" style="line;strokeWidth=1;html=1;" vertex="1" parent="1">
          <mxGeometry x="657" y="640" width="163" height="10" as="geometry" />
        </mxCell>
        <mxCell id="SSoFNLpBlaiQV2NDGb-g-110" value="" style="line;strokeWidth=1;direction=south;html=1;" vertex="1" parent="1">
          <mxGeometry x="752" y="540" width="10" height="190" as="geometry" />
        </mxCell>
        <mxCell id="SSoFNLpBlaiQV2NDGb-g-111" value="" style="line;strokeWidth=1;direction=south;html=1;" vertex="1" parent="1">
          <mxGeometry x="746" y="350" width="10" height="140" as="geometry" />
        </mxCell>
        <UserObject label="&lt;font style=&quot;font-size: 15px;&quot;&gt;Integer&lt;br&gt;&lt;br&gt;String&lt;br&gt;&lt;br&gt;String&lt;br&gt;&lt;br&gt;String&lt;br&gt;&lt;br&gt;Integer&lt;br&gt;&lt;br&gt;Date&lt;br&gt;&lt;/font&gt;" placeholders="1" name="Variable" id="SSoFNLpBlaiQV2NDGb-g-112">
          <mxCell style="text;html=1;strokeColor=none;fillColor=none;align=center;verticalAlign=middle;whiteSpace=wrap;overflow=hidden;" vertex="1" parent="1">
            <mxGeometry x="760" y="50" width="52" height="220" as="geometry" />
          </mxCell>
        </UserObject>
        <UserObject label="&lt;font style=&quot;font-size: 15px;&quot;&gt;Integer&lt;br&gt;&lt;br&gt;Integer&lt;br&gt;&lt;br&gt;Integer&lt;br&gt;&lt;br&gt;Date&lt;br&gt;&lt;/font&gt;" placeholders="1" name="Variable" id="SSoFNLpBlaiQV2NDGb-g-113">
          <mxCell style="text;html=1;strokeColor=none;fillColor=none;align=center;verticalAlign=middle;whiteSpace=wrap;overflow=hidden;" vertex="1" parent="1">
            <mxGeometry x="757" y="341" width="52" height="159" as="geometry" />
          </mxCell>
        </UserObject>
        <UserObject label="&lt;font style=&quot;font-size: 15px;&quot;&gt;Integer&lt;br&gt;&lt;br&gt;String&lt;br&gt;&lt;br&gt;Integer&lt;br&gt;&lt;br&gt;Integer&lt;br&gt;&lt;br&gt;Date&lt;br&gt;&lt;/font&gt;" placeholders="1" name="Variable" id="SSoFNLpBlaiQV2NDGb-g-114">
          <mxCell style="text;html=1;strokeColor=none;fillColor=none;align=center;verticalAlign=middle;whiteSpace=wrap;overflow=hidden;" vertex="1" parent="1">
            <mxGeometry x="762" y="532" width="52" height="196" as="geometry" />
          </mxCell>
        </UserObject>
        <mxCell id="SSoFNLpBlaiQV2NDGb-g-115" value="" style="line;strokeWidth=1;html=1;" vertex="1" parent="1">
          <mxGeometry x="657" y="682" width="163" height="10" as="geometry" />
        </mxCell>
        <mxCell id="SSoFNLpBlaiQV2NDGb-g-117" value="" style="line;strokeWidth=1;html=1;" vertex="1" parent="1">
          <mxGeometry x="657" y="450" width="163" height="10" as="geometry" />
        </mxCell>
        <mxCell id="SSoFNLpBlaiQV2NDGb-g-118" value="" style="line;strokeWidth=1;html=1;" vertex="1" parent="1">
          <mxGeometry x="650" y="232" width="170" height="10" as="geometry" />
        </mxCell>
        <mxCell id="SSoFNLpBlaiQV2NDGb-g-119" value="" style="line;strokeWidth=1;html=1;" vertex="1" parent="1">
          <mxGeometry x="90" y="430" width="190" height="10" as="geometry" />
        </mxCell>
      </root>
    </mxGraphModel>
  </diagram>
</mxfile>
